<?xml version="1.0" encoding="UTF-8" standalone="no"?>
<svg
   xmlns:dc="http://purl.org/dc/elements/1.1/"
   xmlns:cc="http://creativecommons.org/ns#"
   xmlns:rdf="http://www.w3.org/1999/02/22-rdf-syntax-ns#"
   xmlns:svg="http://www.w3.org/2000/svg"
   xmlns="http://www.w3.org/2000/svg"
   viewBox="0 0 1612.8 1238.4"
   height="1238.4"
   width="1612.8"
   xml:space="preserve"
   id="svg2"
   version="1.1"><metadata
     id="metadata8"><rdf:RDF><cc:Work
         rdf:about=""><dc:format>image/svg+xml</dc:format><dc:type
           rdf:resource="http://purl.org/dc/dcmitype/StillImage" /></cc:Work></rdf:RDF></metadata><defs
     id="defs6"><clipPath
       id="clipPath18"
       clipPathUnits="userSpaceOnUse"><path
         id="path16"
         d="M 0,928.8 H 1209.6 V 0 H 0 Z" /></clipPath></defs><g
     transform="matrix(1.3333333,0,0,-1.3333333,0,1238.4)"
     id="g10"><g
       id="g12"><g
         clip-path="url(#clipPath18)"
         id="g14"><g
           transform="translate(467.3284,435.6195)"
           id="g20"><path
             id="path22"
             style="fill:#161616;fill-opacity:1;fill-rule:nonzero;stroke:none"
             d="m 0,0 v -18.622 c 0,-13 16.514,-20.379 36.19,-20.379 19.677,0 33.731,6.676 33.731,20.379 0,19.325 -27.757,25.649 -54.11,35.839 -34.082,13.352 -66.056,29.515 -66.056,75.544 0,55.866 45.677,73.435 90.3,73.435 42.867,0 85.382,-16.163 85.382,-48.137 V 80.814 H 69.219 v 15.811 c 0,9.839 -13.352,15.109 -29.164,15.109 C 25.649,111.734 13,107.518 13,94.518 13,76.949 33.731,70.273 56.569,61.84 c 38.299,-13 76.598,-29.162 76.598,-76.597 0,-57.272 -49.191,-78.706 -96.977,-78.706 -46.731,0 -92.408,20.731 -92.408,61.138 V 0 Z" /></g><g
           transform="translate(622.1726,390.2943)"
           id="g24"><path
             id="path26"
             style="fill:#161616;fill-opacity:1;fill-rule:nonzero;stroke:none"
             d="M 0,0 H 22.839 V 93.111 H -1.757 v 43.921 H 83.625 V 0 h 22.838 V -43.921 H 0 Z" /></g><g
           transform="translate(874.5168,395.5648)"
           id="g28"><path
             id="path30"
             style="fill:#161616;fill-opacity:1;fill-rule:nonzero;stroke:none"
             d="m 0,0 c 4.568,0 8.433,0.702 11.595,2.107 9.838,4.217 15.109,15.812 15.109,27.408 0,15.108 -8.433,26 -26.352,26 H -36.19 V 0 Z m -5.271,104.706 c 15.46,0 22.137,10.541 22.137,24.244 0,8.784 -3.514,17.92 -11.595,21.785 -4.568,1.757 -8.785,2.108 -15.46,2.108 H -36.19 V 104.706 Z M -127.194,-3.514 h 28.11 v 159.87 h -28.11 v 45.678 H -9.838 c 19.676,0 31.974,-0.703 46.028,-5.27 26.704,-9.487 43.921,-30.569 43.921,-60.084 0,-22.136 -10.19,-42.866 -29.866,-53.759 V 82.219 C 79.76,73.083 90.301,48.839 90.301,24.595 90.301,-13.001 63.948,-38.299 34.434,-45.678 20.73,-48.84 10.541,-49.191 -3.162,-49.191 h -124.032 z" /></g><g
           transform="translate(706.9778,573.8817)"
           id="g32"><path
             id="path34"
             style="fill:#4d267d;fill-opacity:1;fill-rule:nonzero;stroke:none"
             d="m 0,0 c 0,-17.437 -14.136,-31.574 -31.573,-31.574 -17.438,0 -31.574,14.137 -31.574,31.574 0,17.437 14.136,31.573 31.574,31.573 C -14.136,31.573 0,17.437 0,0" /></g><g
           transform="translate(658.3933,254.2768)"
           id="g36"><path
             id="path38"
             style="fill:#161616;fill-opacity:1;fill-rule:nonzero;stroke:none"
             d="m 0,0 c -1.047,6.596 -2.106,13.19 -3.125,19.79 -0.176,1.137 -0.2,2.222 -0.096,3.263 l -41.262,52.688 c -40.04,-31.066 -92.947,-44.8 -146.196,-33.677 -96.975,20.452 -158.053,115.345 -137.939,211.179 19.982,95.207 113.342,158.432 211.196,137.876 27.542,-5.786 52.183,-17.526 72.898,-33.571 l 42.529,54.542 c 0.01,0.64 0.054,1.295 0.173,1.98 3.034,17.39 6.009,34.791 8.99,52.19 0.336,1.959 0.562,3.937 0.874,5.9 0.649,4.086 -1.01,7.422 -4.745,9.193 -16.009,7.592 -32.015,15.194 -48.063,22.706 -8.322,3.896 -9.768,3.498 -15.651,-3.494 -11.47,-13.63 -22.938,-27.262 -34.414,-40.887 -0.768,-0.911 -1.551,-1.816 -2.402,-2.648 -1.935,-1.891 -4.059,-2.712 -6.918,-2.009 -5.638,1.384 -11.429,1.991 -17.169,2.849 -4.112,0.614 -6.904,2.894 -8.532,6.752 -7.387,17.517 -14.822,35.013 -22.241,52.516 -0.652,1.538 -1.224,3.133 -2.428,4.349 -1.881,1.904 -4.098,2.949 -6.861,2.617 -18.624,-2.237 -37.254,-4.436 -55.874,-6.709 -3.72,-0.454 -6.311,-2.864 -6.879,-6.592 -1.066,-6.99 -1.913,-14.014 -2.823,-21.027 -1.216,-9.377 -2.403,-18.757 -3.604,-28.135 -0.364,-2.838 -0.819,-5.667 -1.077,-8.514 -0.347,-3.838 -2.219,-6.692 -5.646,-8.225 -6.532,-2.922 -13.136,-5.698 -19.793,-8.327 -3.499,-1.381 -6.796,-0.514 -9.906,1.632 -11.714,8.083 -23.489,16.075 -35.243,24.098 -4.203,2.869 -8.398,5.748 -12.618,8.591 -4.223,2.846 -7.592,2.727 -11.533,-0.49 -13.496,-11.016 -26.977,-22.048 -40.442,-33.1 -4.154,-3.41 -4.787,-6.431 -2.452,-11.36 7.9,-16.677 15.754,-33.378 23.773,-49.999 2.176,-4.511 1.869,-8.461 -1.009,-12.499 -4.29,-6.022 -8.453,-12.136 -12.571,-18.277 -2.441,-3.641 -5.747,-5.289 -10.087,-5.162 -19.058,0.559 -38.118,1.076 -57.176,1.626 -5.464,0.158 -8.157,-1.411 -10.039,-6.54 -4.298,-11.707 -8.502,-23.449 -12.026,-35.423 -1.594,-5.415 -3.168,-10.825 -4.44,-16.332 -0.578,-2.499 -0.048,-3.893 2.146,-5.245 15.769,-9.717 31.299,-19.833 47.266,-29.208 6.702,-3.935 9.609,-8.658 8.855,-16.408 -0.728,-7.495 -0.566,-15.079 -0.713,-22.625 -0.082,-4.182 -1.852,-7.278 -5.428,-9.433 -15.466,-9.321 -30.917,-18.668 -46.372,-28.009 -1.362,-0.822 -2.745,-1.616 -4.058,-2.511 -3.003,-2.047 -4.357,-5.211 -3.4,-8.721 4.518,-16.573 9.093,-33.129 13.738,-49.666 1.024,-3.649 4.17,-5.649 8.214,-5.593 18.831,0.256 37.662,0.462 56.49,0.845 4.78,0.096 8.204,-1.603 10.702,-5.686 4.899,-8.007 9.902,-15.951 14.966,-23.855 2.441,-3.812 2.424,-7.552 0.478,-11.514 -8.375,-17.044 -16.721,-34.103 -25.048,-51.171 -2.075,-4.253 -1.4,-7.612 2.114,-10.697 12.251,-10.758 24.517,-21.499 36.795,-32.226 3.927,-3.43 7.085,-3.636 11.459,-0.741 15.525,10.273 31.09,20.488 46.512,30.913 4.302,2.909 8.352,3.23 12.973,1.062 8.2,-3.846 16.474,-7.534 24.76,-11.193 4.182,-1.846 6.392,-4.877 6.901,-9.454 2.01,-18.088 4.2,-36.157 6.182,-54.249 0.391,-3.573 1.377,-6.653 4.206,-8.98 6.697,-1.403 13.394,-2.806 20.091,-4.208 4.574,-0.519 9.143,-1.08 13.722,-1.547 6.715,-0.686 13.433,-1.368 20.161,-1.927 4.122,-0.343 7.006,1.574 8.668,5.351 7.715,17.526 15.478,35.031 23.113,52.592 1.856,4.271 4.799,6.69 9.421,7.36 8.261,1.198 16.507,2.507 24.739,3.893 4.687,0.79 8.299,-0.561 11.33,-4.303 11.465,-14.158 23.052,-28.214 34.601,-42.301 1.156,-1.41 2.219,-2.952 3.956,-3.728 2.277,-1.016 4.579,-1.209 6.917,-0.101 16.03,7.597 32.079,15.153 48.09,22.79 3.532,1.685 4.963,5.181 4.249,9.701 C 3.976,-24.967 1.982,-12.484 0,0" /></g></g></g></g></svg>