<?xml version="1.0" encoding="UTF-8" standalone="no"?>
<svg
   xmlns:dc="http://purl.org/dc/elements/1.1/"
   xmlns:cc="http://creativecommons.org/ns#"
   xmlns:rdf="http://www.w3.org/1999/02/22-rdf-syntax-ns#"
   xmlns:svg="http://www.w3.org/2000/svg"
   xmlns="http://www.w3.org/2000/svg"
   xmlns:sodipodi="http://sodipodi.sourceforge.net/DTD/sodipodi-0.dtd"
   xmlns:inkscape="http://www.inkscape.org/namespaces/inkscape"
   version="1.1"
   id="svg2"
   xml:space="preserve"
   width="1612.8"
   height="1238.4"
   viewBox="0 0 1612.8 1238.4"
   sodipodi:docname="sib21-logo-victor-blanco.ai"><metadata
     id="metadata8"><rdf:RDF><cc:Work
         rdf:about=""><dc:format>image/svg+xml</dc:format><dc:type
           rdf:resource="http://purl.org/dc/dcmitype/StillImage" /></cc:Work></rdf:RDF></metadata><defs
     id="defs6"><clipPath
       clipPathUnits="userSpaceOnUse"
       id="clipPath18"><path
         d="M 0,0 H 1209.6 V 928.8 H 0 Z"
         id="path16" /></clipPath></defs><sodipodi:namedview
     pagecolor="#ffffff"
     bordercolor="#666666"
     borderopacity="1"
     objecttolerance="10"
     gridtolerance="10"
     guidetolerance="10"
     inkscape:pageopacity="0"
     inkscape:pageshadow="2"
     inkscape:window-width="640"
     inkscape:window-height="480"
     id="namedview4" /><g
     id="g10"
     inkscape:groupmode="layer"
     inkscape:label="sib21-logo-victor-blanco"
     transform="matrix(1.3333333,0,0,-1.3333333,0,1238.4)"><g
       id="g12"><g
         id="g14"
         clip-path="url(#clipPath18)"><g
           id="g20"
           transform="translate(467.3286,435.6191)"><path
             d="m 0,0 v -18.622 c 0,-13 16.514,-20.379 36.19,-20.379 19.677,0 33.731,6.677 33.731,20.379 0,19.325 -27.757,25.649 -54.11,35.84 -34.082,13.351 -66.056,29.514 -66.056,75.543 0,55.866 45.677,73.435 90.3,73.435 42.867,0 85.382,-16.163 85.382,-48.136 V 80.814 H 69.219 v 15.811 c 0,9.839 -13.352,15.109 -29.164,15.109 C 25.649,111.734 13,107.519 13,94.519 13,76.949 33.731,70.273 56.569,61.84 c 38.299,-13 76.598,-29.162 76.598,-76.597 0,-57.271 -49.191,-78.706 -96.977,-78.706 -46.731,0 -92.408,20.732 -92.408,61.139 V 0 Z"
             style="fill:#ffffff;fill-opacity:1;fill-rule:nonzero;stroke:none"
             id="path22" /></g><g
           id="g24"
           transform="translate(622.1729,390.2939)"><path
             d="M 0,0 H 22.839 V 93.111 H -1.757 v 43.921 H 83.625 V 0 h 22.838 V -43.921 H 0 Z"
             style="fill:#ffffff;fill-opacity:1;fill-rule:nonzero;stroke:none"
             id="path26" /></g><g
           id="g28"
           transform="translate(874.5166,395.5645)"><path
             d="m 0,0 c 4.568,0 8.434,0.702 11.595,2.107 9.839,4.217 15.109,15.812 15.109,27.409 0,15.107 -8.433,26 -26.351,26 H -36.189 V 0 Z m -5.271,104.707 c 15.46,0 22.137,10.54 22.137,24.243 0,8.784 -3.513,17.92 -11.595,21.785 -4.568,1.757 -8.785,2.108 -15.459,2.108 H -36.189 V 104.707 Z M -127.194,-3.514 h 28.11 v 159.87 h -28.11 v 45.678 H -9.838 c 19.676,0 31.974,-0.703 46.028,-5.27 26.705,-9.487 43.921,-30.569 43.921,-60.084 0,-22.136 -10.19,-42.866 -29.866,-53.759 V 82.219 C 79.76,73.083 90.301,48.839 90.301,24.596 90.301,-13.001 63.948,-38.299 34.435,-45.678 20.73,-48.84 10.541,-49.19 -3.162,-49.19 h -124.032 z"
             style="fill:#ffffff;fill-opacity:1;fill-rule:nonzero;stroke:none"
             id="path30" /></g><g
           id="g32"
           transform="translate(706.9775,573.8818)"><path
             d="m 0,0 c 0,-17.437 -14.136,-31.574 -31.573,-31.574 -17.438,0 -31.573,14.137 -31.573,31.574 0,17.437 14.135,31.573 31.573,31.573 C -14.136,31.573 0,17.437 0,0"
             style="fill:#ffffff;fill-opacity:1;fill-rule:nonzero;stroke:none"
             id="path34" /></g><g
           id="g36"
           transform="translate(658.3936,254.2764)"><path
             d="m 0,0 c -1.047,6.597 -2.106,13.19 -3.125,19.79 -0.177,1.138 -0.2,2.223 -0.097,3.264 l -41.261,52.687 c -40.04,-31.065 -92.947,-44.8 -146.196,-33.677 -96.975,20.453 -158.053,115.345 -137.939,211.179 19.982,95.207 113.342,158.432 211.196,137.876 27.542,-5.786 52.183,-17.526 72.898,-33.571 l 42.529,54.542 c 0.01,0.64 0.054,1.295 0.173,1.98 3.034,17.39 6.009,34.791 8.99,52.19 0.336,1.959 0.561,3.937 0.874,5.9 0.648,4.087 -1.01,7.423 -4.745,9.194 -16.009,7.591 -32.015,15.193 -48.064,22.706 -8.321,3.896 -9.767,3.498 -15.65,-3.495 -11.47,-13.629 -22.938,-27.262 -34.414,-40.887 -0.768,-0.91 -1.551,-1.816 -2.402,-2.648 -1.935,-1.89 -4.059,-2.712 -6.918,-2.009 -5.638,1.384 -11.429,1.991 -17.169,2.85 -4.112,0.613 -6.904,2.894 -8.533,6.752 -7.386,17.517 -14.821,35.012 -22.24,52.516 -0.652,1.537 -1.224,3.132 -2.428,4.348 -1.881,1.905 -4.098,2.95 -6.861,2.617 -18.624,-2.237 -37.254,-4.436 -55.874,-6.708 -3.72,-0.455 -6.311,-2.865 -6.879,-6.593 -1.066,-6.99 -1.913,-14.013 -2.823,-21.027 -1.216,-9.377 -2.403,-18.756 -3.604,-28.134 -0.364,-2.839 -0.819,-5.667 -1.077,-8.515 -0.347,-3.837 -2.219,-6.691 -5.646,-8.225 -6.532,-2.922 -13.136,-5.697 -19.793,-8.327 -3.499,-1.381 -6.796,-0.513 -9.906,1.633 -11.714,8.083 -23.489,16.074 -35.243,24.098 -4.203,2.868 -8.398,5.747 -12.618,8.59 -4.223,2.846 -7.592,2.728 -11.533,-0.49 -13.496,-11.015 -26.977,-22.048 -40.442,-33.099 -4.154,-3.411 -4.787,-6.432 -2.452,-11.361 7.9,-16.676 15.754,-33.378 23.773,-49.999 2.176,-4.51 1.869,-8.461 -1.009,-12.499 -4.29,-6.022 -8.453,-12.136 -12.571,-18.277 -2.441,-3.641 -5.747,-5.289 -10.087,-5.162 -19.058,0.559 -38.118,1.076 -57.176,1.626 -5.464,0.158 -8.157,-1.41 -10.039,-6.54 -4.298,-11.706 -8.502,-23.449 -12.026,-35.423 -1.594,-5.415 -3.168,-10.824 -4.44,-16.332 -0.578,-2.499 -0.048,-3.893 2.146,-5.245 15.769,-9.717 31.299,-19.833 47.266,-29.208 6.702,-3.934 9.609,-8.658 8.855,-16.408 -0.728,-7.495 -0.566,-15.079 -0.713,-22.625 -0.082,-4.181 -1.852,-7.278 -5.428,-9.432 -15.466,-9.321 -30.917,-18.669 -46.372,-28.01 -1.362,-0.821 -2.745,-1.615 -4.058,-2.511 -3.003,-2.047 -4.357,-5.211 -3.4,-8.72 4.518,-16.574 9.093,-33.129 13.738,-49.666 1.024,-3.65 4.17,-5.65 8.214,-5.593 18.831,0.256 37.662,0.462 56.49,0.845 4.78,0.095 8.204,-1.604 10.702,-5.687 4.899,-8.007 9.902,-15.95 14.966,-23.854 2.441,-3.813 2.424,-7.552 0.478,-11.514 -8.375,-17.045 -16.721,-34.104 -25.048,-51.172 -2.075,-4.253 -1.4,-7.611 2.114,-10.696 12.251,-10.759 24.517,-21.499 36.795,-32.227 3.927,-3.429 7.085,-3.636 11.459,-0.741 15.525,10.273 31.09,20.488 46.512,30.913 4.302,2.909 8.352,3.231 12.973,1.063 8.2,-3.846 16.474,-7.535 24.76,-11.194 4.182,-1.846 6.392,-4.877 6.901,-9.454 2.01,-18.088 4.2,-36.156 6.182,-54.249 0.391,-3.572 1.377,-6.652 4.206,-8.979 6.697,-1.404 13.394,-2.807 20.091,-4.208 4.574,-0.52 9.143,-1.081 13.722,-1.547 6.715,-0.687 13.433,-1.368 20.161,-1.928 4.122,-0.343 7.006,1.574 8.668,5.352 7.715,17.526 15.478,35.031 23.113,52.591 1.856,4.272 4.799,6.691 9.421,7.361 8.261,1.197 16.507,2.507 24.739,3.892 4.687,0.79 8.298,-0.56 11.33,-4.302 11.465,-14.159 23.051,-28.214 34.601,-42.301 1.156,-1.41 2.219,-2.952 3.955,-3.729 2.278,-1.015 4.579,-1.209 6.917,-0.1 16.031,7.596 32.079,15.152 48.091,22.79 3.531,1.684 4.963,5.18 4.248,9.701 C 3.976,-24.967 1.981,-12.483 0,0"
             style="fill:#ffffff;fill-opacity:1;fill-rule:nonzero;stroke:none"
             id="path38" /></g></g></g></g></svg>
